<svg xmlns="http://www.w3.org/2000/svg" viewBox="185 147 40 40">
  <defs>
    <style>
      .cls-1 {
        fill: #f5222d;
      }

      .cls-2 {
        fill: #fff;
      }
    </style>
  </defs>
  <g id="Group_3" data-name="Group 3" transform="translate(91 -46)">
    <circle id="Ellipse_342" data-name="Ellipse 342" class="cls-1" cx="20" cy="20" r="20" transform="translate(94 193)"/>
    <path id="Union_489" data-name="Union 489" class="cls-2" d="M12.4,15.935l-4.6-4.6-4.6,4.6a1,1,0,0,1-1.414,0L-.329,13.813a1,1,0,0,1,0-1.414l4.6-4.6-4.6-4.6a1,1,0,0,1,0-1.414L1.792-.329a1,1,0,0,1,1.415,0l4.6,4.6,4.6-4.6a1,1,0,0,1,1.415,0l2.121,2.121a1,1,0,0,1,0,1.415l-4.6,4.6,4.6,4.6a1,1,0,0,1,0,1.414l-2.121,2.121a1,1,0,0,1-1.414,0Z" transform="translate(106.198 205.197)"/>
  </g>
</svg>
