<svg id="Grupo_4685" data-name="Grupo 4685" xmlns="http://www.w3.org/2000/svg" width="19" height="19.241" viewBox="0 0 19 19.241">
  <g id="Grupo_4684" data-name="Grupo 4684" transform="translate(0 0)">
    <path id="Trazado_5411" data-name="Trazado 5411" d="M13.4-7.928H1.671A1.67,1.67,0,0,1,0-9.6V-21.329A1.678,1.678,0,0,1,1.677-23h9.606L9.609-21.325H1.675V-9.6H13.4v-8.406l1.675-1.675V-9.6A1.671,1.671,0,0,1,13.4-7.928Z" transform="translate(0 27.169)" fill-rule="evenodd"/>
    <path id="Trazado_5412" data-name="Trazado 5412" d="M3.349,2.512H0V12.56H3.349ZM3.3,13.6,2.04,15.84a.419.419,0,0,1-.73,0L.054,13.6A.419.419,0,0,1,0,13.4H3.349A.418.418,0,0,1,3.3,13.6ZM3.349.419A.419.419,0,0,0,2.931,0H.419A.419.419,0,0,0,0,.419V1.675H3.349Z" transform="translate(16.632 0) rotate(45)" fill-rule="evenodd"/>
  </g>
</svg>
